<svg width="435" height="464" fill="none" xmlns="http://www.w3.org/2000/svg"><path d="M0 0v464h435V0H0Zm236.733 361.87c0 45.157-24.857 65.772-61.071 65.772-32.718 0-51.656-18.013-61.366-39.871l33.309-21.443c6.416 12.114 12.242 22.371 26.317 22.371 13.392 0 21.937-5.601 21.937-27.442V213.042h40.874V361.87Zm96.694 65.772c-37.969 0-62.531-19.256-74.478-44.544l33.309-20.499c8.746 15.23 20.196 26.515 40.299 26.515 16.888 0 27.778-9.015 27.778-21.543 0-14.914-11.077-20.201-29.813-29l-10.191-4.657c-29.518-13.356-49.031-30.243-49.031-65.772 0-32.728 23.397-57.585 59.813-57.585 26.022 0 44.665 9.628 58.072 34.899l-31.848 21.758c-6.991-13.356-14.573-18.643-26.318-18.643-11.931 0-19.512 8.087-19.512 18.643 0 13.059 7.581 18.328 25.152 26.515l10.191 4.656c34.769 15.842 54.282 32.116 54.282 68.556 0 39.158-28.943 60.685-67.689 60.685l-.016.016Z" fill="#fff"/></svg>