<svg width="439" height="456" fill="none" xmlns="http://www.w3.org/2000/svg"><path d="M218.952 239.713c-1.67 2.377-3.078 4.334-4.433 6.311a650562.733 650562.733 0 0 0-64.808 95.536 71351.61 71351.61 0 0 1-60.334 88.804 4.081 4.081 0 0 1-2.868 1.672c-28.423-.246-56.84-.554-85.249-.926-.315 0-.64-.094-1.26-.189.23-.595.496-1.174.798-1.735 19.824-30.776 39.649-61.545 59.473-92.307a123464.88 123464.88 0 0 1 52.782-81.767 96430.749 96430.749 0 0 0 58.495-90.897c2.878-4.47 5.872-8.856 8.603-13.411.7-1.219.911-2.659.588-4.028-5.252-16.766-10.609-33.49-15.955-50.213-2.29-7.163-4.685-14.284-6.828-21.489-.693-2.314-1.838-3.018-4.201-3.008-17.857.074-35.608.053-53.412.053-3.382 0-3.393 0-3.393-3.345 0-21.92 0-43.84-.063-65.759 0-2.44.799-2.987 3.088-2.987 35.846.063 71.699.063 107.559 0a3.453 3.453 0 0 1 3.782 2.556c18.907 47.619 37.813 95.22 56.72 142.803 22.058 55.494 44.116 110.994 66.174 166.501 6.849 17.229 13.75 34.447 20.525 51.717.809 2.104 1.649 2.504 3.771 1.852 18.791-5.817 37.624-11.476 56.405-17.303 2.364-.736 3.225-.241 3.96 2.104 6.407 20.163 12.941 40.284 19.432 60.426.221.694.389 1.399.651 2.367-1.344.494-2.605 1.052-3.897 1.409a223581.901 223581.901 0 0 0-128.073 40.684c-2.037.642-2.646-.053-3.329-1.767a55018.832 55018.832 0 0 0-39.19-99.164 279108.275 279108.275 0 0 0-38.444-97.061c-1.922-4.859-3.813-9.739-5.735-14.599-.305-.831-.725-1.556-1.334-2.84Z" fill="#fff"/></svg>