<svg width="201" height="447" fill="none" xmlns="http://www.w3.org/2000/svg"><path d="M196.929 177.402c-23.562-103.67-79.231-137.664-85.213-150.691C105.146 17.471 98.072 0 98.072 0c-.07.363-.07.587-.14.95v.224c0 .294-.07.433-.07.727v.293h-.07v.937h-.07c0 .14 0 .363-.07.433v.434c0 .14 0 .293-.07.363v.363c0 .224 0 .434-.07.587v.07c-.013.321-.06.64-.14.95v.14c-.07.07-.07.14-.07.224v.294h-.07v.433h-.07v.294h-.14v.433h-.071v.363h-.07v.294h-.07v.293h-.07v.294h-.07v.293h-.07v.224h-.07v.294h-.07v.293h-.07c-.07 0-.07.07-.07.07v.14l-.07.14c0 .14-.07.293-.14.433-.07.07-.07.07-.07.14v.14h-.07v.14h-.14v.363h-.14v.223h-.07v.07h-.07v.14h-.07v.223h-.07v.14h-.141v.224h-.07v.14h-.07v.14h-.07v.223h-.07v.14h-.07v.07h-.07v.14h-.14v.223h-.07v.07h-.07v.14h-.07v.223h-.07v.07h-.07v.14h-.07v.07h-.07v.224h-.14v.07h-.07v.14h-.07v.07h-.07v.139h-.07v.14c-.07 0-.07.07-.07.07v.07h-.071l-.224.363s-.14.14-.14.224c-.07 0-.07.07-.07.07v.07h-.07v.07h-.07v.139h-.14v.07h-.07v.07h-.07v.21h-.07v.07h-.07v.07h-.07v.139h-.07v-.14h-.14v.07h-.07v.14h-.07v.14h-.07v.07h-.07v.07h-.07v.07h-.071v.14h-.14v.069h-.07v.14h-.07v.07h-.07v.07h-.07v.223h-.07v.07h-.07v.07h-.07v.07h-.07v.07h-.14v.14h-.07v.07h-.07v.07h-.07v.14h-.07v.069h-.14v.07h-.07v.07h-.07v.14h-.07v.14h-.07v.07h-.071v.07h-.14v.069h-.07v.07h-.07v.14h-.07v.07h-.07v.14h-.07v.07h-.07v.07h-.07v.069h-.07v.07h-.14v.07c-.07 0-.07.07-.07.07l-.07.07-.07.07v.14h-.07v.069h-.07v.07h-.07v.07h-.07l-.14.14v.07c-.14.07-.14.14-.295.293 0 0-.14.14-.224.14-.224.14-.505.433-.729.657-.14.07-.294.223-.434.293-.294.294-.588.503-.882.727-.435.433-.883.727-1.387 1.16h-.07L81.43 27.69h-.07c-3.138 2.768-6.864 6.332-11.095 10.553l-.364.364C44.503 64.814 4.453 119.48.293 207.789c-.434 7.283-.364 14.411.07 21.33v.14c2.045 34.804 12.986 64.506 26.7 88.673 5.393 9.616 11.305 18.352 17.286 26.208 20.579 27.088 41.591 43.176 46.915 47.104 8.25 18.995 7.508 51.758 7.508 51.758L110.805 447s-2.479-31.673.953-47.034c1.093-4.739 3.572-8.806 6.5-12.3 2.045-1.384 7.887-5.605 14.891-12.007.364-.363.588-.657.882-1.02 28.381-26.432 81.431-91.511 63.262-197.502l-.364.265Z" fill="#fff"/></svg>