<svg width="410" height="447" fill="none" xmlns="http://www.w3.org/2000/svg"><path d="M205 447c-6.374 0-12.3-1.661-17.835-4.534l-56.45-32.429c-8.479-4.515-4.23-6.157-1.677-6.978 11.443-3.694 13.567-4.515 25.457-11.102 1.268-.821 2.982-.41 4.25.411l43.292 25.058c1.677.821 3.82.821 5.088 0l169.348-94.86c1.677-.821 2.535-2.463 2.535-4.515v-189.31c0-2.052-.839-3.694-2.535-4.515L207.125 29.795c-1.696-.821-3.821-.821-5.088 0L32.688 124.226c-1.696.821-2.553 2.873-2.553 4.515v189.31c0 1.642.857 3.694 2.553 4.515l46.256 25.88c25.047 12.314 40.739-2.053 40.739-16.42V145.179c0-2.463 2.124-4.926 5.106-4.926h21.637c2.553 0 5.088 2.053 5.088 4.926v186.828c0 32.448-18.245 51.33-50.076 51.33-9.766 0-17.407 0-39.044-10.262l-44.559-24.629a34.448 34.448 0 0 1-12.989-12.565A34.495 34.495 0 0 1 0 318.461V129.152c0-12.315 6.784-23.809 17.835-29.966L187.184 4.307a39.003 39.003 0 0 1 35.632 0l169.368 94.86C403.216 105.325 410 116.818 410 129.133v189.31c0 12.314-6.784 23.808-17.816 29.984l-169.368 94.841A44.683 44.683 0 0 1 205 446.963V447Zm52.2-130.181c-74.265 0-89.547-32.839-89.547-60.771 0-2.463 2.124-4.925 5.087-4.925h22.066c2.553 0 4.659 1.641 4.659 4.104 3.41 21.756 13.176 32.429 58.164 32.429 35.651 0 50.933-7.799 50.933-26.271 0-10.673-4.249-18.472-59.841-23.809-46.274-4.534-75.123-14.367-75.123-50.098 0-33.268 28.849-52.99 77.247-52.99 54.325 0 81.069 18.08 84.46 57.506a6.479 6.479 0 0 1-1.285 3.694c-.839.821-2.106 1.642-3.392 1.642h-22.066a4.935 4.935 0 0 1-2.946-1.067 4.948 4.948 0 0 1-1.713-2.627c-5.106-22.577-18.263-29.985-53.058-29.985-39.061 0-43.72 13.136-43.72 22.988 0 11.922 5.516 15.617 58.145 22.185 52.2 6.567 76.819 16.009 76.819 51.311-.429 36.16-30.974 56.684-84.889 56.684Z" fill="#fff"/></svg>