<svg width="412" height="426" fill="none" xmlns="http://www.w3.org/2000/svg"><path d="M411.569 261.33a9.336 9.336 0 0 0-1.014-2.13c-2.472-4.651-8.482-6.053-17.907-4.1-29.412 6.035-40.793 2.307-44.918-.355 23.864-36.353 43.478-80.268 54.076-121.235 4.837-18.638 14.19-62.535 2.17-83.96a27.729 27.729 0 0 0-2.668-4.189C378.351 16.144 344.707.435 303.985.01c-26.585-.284-49.257 6.142-55.41 8.503a168.143 168.143 0 0 0-9.176-1.456 143.292 143.292 0 0 0-23.33-2.254c-21.019-.338-39.175 4.686-54.236 14.91-15.222-5.698-85.125-29.2-128.39 1.402C9.242 38.208-1.89 68.738.263 111.89c.729 14.519 9.015 59.179 22.103 101.958 8.18 26.732 16.68 47.961 25.482 63.582 9.834 17.643 20.023 28.276 30.48 31.773 7.966 2.627 20.147 2.538 33.039-12.94a993.297 993.297 0 0 1 34.587-39.158c7.735 4.172 16.111 6.426 24.717 6.692v.071a197.986 197.986 0 0 0-4.392 5.414c-6.028 7.633-7.291 9.23-26.674 13.224-5.512 1.136-20.165 4.136-20.378 14.396a10.476 10.476 0 0 0 1.618 5.804c4.037 7.508 16.395 10.828 18.049 11.236 23.74 5.911 44.545 1.633 59.962-12.053-.302 39.602 1.37 78.422 6.135 90.314 3.93 9.816 13.551 33.797 43.923 33.797 4.446 0 9.354-.532 14.742-1.669 31.688-6.78 45.451-20.767 50.768-51.582 2.668-15.443 7.149-51.032 9.585-72.794.302-1.243.64-2.13 1.014-2.414 0 0 1.244-.852 7.593.532.258.057.519.099.782.124l4.517.391.267.018c15.061.692 33.982-2.521 45.007-7.633 11.452-5.325 32.115-18.336 28.363-29.643h.018Zm-376.81-50.535c-13.23-43.222-20.947-86.711-21.552-98.888-1.938-38.553 7.415-65.374 27.776-79.752C73.65 9.097 127.05 22.57 149.598 29.847l-.178.178c-35.973 36.246-35.12 98.23-34.995 102.029 0 1.456.106 3.532.284 6.39.605 10.402 1.778 29.821-1.316 51.796-2.845 20.413 3.45 40.4 17.303 54.831a58.507 58.507 0 0 0 4.481 4.206c-6.171 6.586-19.561 21.177-33.84 38.306-10.1 12.105-17.071 9.78-19.347 9.017-6.971-2.308-14.458-10.42-22.033-23.466-8.535-14.893-17.124-36.069-25.162-62.339h-.036Zm106.819 90.313a28.93 28.93 0 0 1-7.682-3.159c1.583-.692 4.215-1.598 8.589-2.485 22.833-4.704 26.354-8.006 34.054-17.75 1.76-2.255 3.752-4.793 6.526-7.864a6.307 6.307 0 0 0 1.316-2.307c3.023-2.681 4.836-1.953 7.753-.746 2.774 1.154 5.477 4.615 6.579 8.431.534 1.811 1.103 5.237-.8 7.899-16.075 22.472-39.513 22.188-56.335 17.981Zm37.237-70.788-.925 2.485c-2.365 6.337-4.57 12.23-5.939 17.821-11.861-.035-23.42-5.112-32.186-14.253-11.168-11.627-16.236-27.797-13.924-44.376 3.254-23.217 2.063-43.435 1.422-54.298l-.231-3.905c5.264-4.651 29.626-17.68 46.999-13.704 7.931 1.811 12.768 7.207 14.76 16.473 10.402 47.997 1.387 67.984-5.869 84.065a155.94 155.94 0 0 0-4.09 9.692h-.017Zm130.949 81.155c-.302 3.142-.64 6.674-1.102 10.579l-2.596 7.775a6.245 6.245 0 0 0-.32 1.917c-.107 8.431-.961 11.52-2.045 15.442-1.139 4.065-2.401 8.663-3.201 18.763-1.956 25.099-15.613 39.53-42.98 45.369-26.941 5.769-31.724-8.804-35.921-21.673-.438-1.351-.9-2.694-1.387-4.029-3.823-10.402-3.378-25.064-2.792-45.352.285-9.958-.444-33.744-5.868-46.968.071-5.201.178-10.49.338-15.833a6.228 6.228 0 0 0-.285-2.006 26.461 26.461 0 0 0-.782-3.692c-2.169-7.597-7.469-13.952-13.87-16.596-2.525-1.048-7.167-2.965-12.75-1.545 1.191-4.899 3.254-10.419 5.495-16.419l.942-2.52c1.067-2.84 2.383-5.769 3.788-8.876 7.575-16.827 17.96-39.867 6.686-91.911-4.215-19.49-18.316-29.004-39.69-26.803-12.804 1.331-24.54 6.497-30.391 9.443a102.605 102.605 0 0 0-3.485 1.846c1.636-19.632 7.806-56.34 30.87-79.557a71.7 71.7 0 0 1 5.388-4.899 6.282 6.282 0 0 0 2.579-1.136c13.372-10.118 30.141-15.088 49.826-14.786 7.291.124 14.262.604 20.877 1.438 34.498 6.301 57.686 25.684 71.769 42.299 14.475 17.076 22.317 34.276 25.447 43.559-23.526-2.378-39.53 2.255-47.657 13.846-17.64 25.17 9.674 74.054 22.797 97.556 2.401 4.295 4.481 8.023 5.139 9.585 4.268 10.348 9.799 17.253 13.835 22.294 1.245 1.544 2.454 3.035 3.361 4.349-7.113 2.059-19.916 6.798-18.76 30.477-.232 2.769-.765 7.935-1.494 14.467-.818 3.692-1.245 8.165-1.778 13.597h.017Zm15.827-28.774c-.712-14.768 4.801-16.312 10.616-17.928a50.202 50.202 0 0 0 2.4-.727 21.533 21.533 0 0 0 2.383 1.828c10.136 6.674 28.15 7.473 53.472 2.379-3.592 3.141-9.229 7.1-16.947 10.668-7.29 3.372-19.489 5.91-31.066 6.461-12.803.603-19.311-1.42-20.858-2.681Zm10.136-164.563c-.107 6.212-.961 11.875-1.867 17.768-.978 6.355-1.992 12.922-2.259 20.892-.249 7.739.711 15.798 1.654 23.608 1.903 15.745 3.841 31.951-3.681 47.944a62.486 62.486 0 0 1-3.343-6.834 134.352 134.352 0 0 0-5.779-10.952c-10.954-19.597-36.579-65.499-23.473-84.208 6.757-9.638 23.864-10.047 38.748-8.218Zm4.054 124.483c-.5-.636-1.004-1.269-1.511-1.899l-.623-.781c12.91-21.301 10.385-42.37 8.127-61.044-.925-7.668-1.778-14.91-1.565-21.691.231-7.224 1.174-13.401 2.098-19.383 1.138-7.366 2.312-14.981 1.974-23.963a9.892 9.892 0 0 0 .213-3.373c-.818-8.626-10.669-34.4-30.763-57.742a138.73 138.73 0 0 0-47.799-36.21 164.798 164.798 0 0 1 36.009-3.302c36.49.817 65.351 14.449 85.783 40.524.436.565.834 1.158 1.191 1.775 12.857 24.07-4.908 111.384-53.116 187.089h-.018ZM183.011 134.06c-.444 3.195-5.512 7.508-11.043 7.508a10.356 10.356 0 0 1-1.44-.106 14.174 14.174 0 0 1-8.998-5.592c-.818-1.065-2.134-3.159-1.885-5.058a3.954 3.954 0 0 1 1.654-2.645c2.098-1.58 6.259-2.166 10.847-1.527 5.62.781 11.417 3.426 10.848 7.42h.017Zm141.015-7.296c.195 1.42-.871 3.551-2.721 5.503a12.841 12.841 0 0 1-7.255 3.958c-.442.061-.888.09-1.334.089-5.21 0-9.62-4.153-9.958-6.585-.427-3.142 4.695-5.503 9.958-6.248 5.299-.746 10.883.159 11.31 3.283Z" fill="#fff"/></svg>