<svg width="514" height="458" fill="none" xmlns="http://www.w3.org/2000/svg"><path d="M514 229.478c0-34.008-42.586-66.242-107.887-86.219 15.079-66.542 8.385-119.502-21.132-136.463a45.882 45.882 0 0 0-23.443-5.84v23.315c4.813 0 8.684.962 11.935 2.738 14.224 8.17 20.405 39.227 15.593 79.204-1.155 9.839-3.037 20.191-5.347 30.757a507.098 507.098 0 0 0-66.435-11.4 510.3 510.3 0 0 0-43.527-52.318c34.116-31.699 66.135-49.067 87.909-49.067V.85c-28.789 0-66.456 20.512-104.55 56.082-38.073-35.335-75.76-55.655-104.529-55.655v23.315c21.668 0 53.794 17.282 87.91 48.767-14.652 15.4-29.303 32.854-43.228 52.211a488.467 488.467 0 0 0-66.541 11.507 314.053 314.053 0 0 1-5.455-30.33c-4.919-39.997 1.155-71.054 15.294-79.31 3.122-1.883 7.208-2.739 12.02-2.739V1.384c-8.769 0-16.747 1.883-23.635 5.84-29.41 16.961-35.998 69.792-20.833 136.142C43.032 163.471.66 195.577.66 229.478c0 34.009 42.586 66.243 107.887 86.199-15.08 66.563-8.384 119.522 21.133 136.463 6.801 3.978 14.758 5.86 23.528 5.86 28.789 0 66.456-20.512 104.55-56.082 38.073 35.356 75.739 55.654 104.529 55.654a46.628 46.628 0 0 0 23.635-5.86c29.41-16.94 35.998-69.772 20.833-136.121C471.628 295.614 514 263.38 514 229.478Zm-136.249-69.792a470.974 470.974 0 0 1-14.117 41.323 565.775 565.775 0 0 0-28.768-49.601c14.865 2.203 29.196 4.919 42.906 8.278h-.021Zm-47.912 111.437c-8.149 14.117-16.533 27.528-25.217 39.976a544.408 544.408 0 0 1-94.369.107 544.494 544.494 0 0 1-47.078-81.407 557.46 557.46 0 0 1 46.885-81.706 544.464 544.464 0 0 1 94.348-.129c8.684 12.449 17.175 25.753 25.324 39.784 7.957 13.689 15.187 27.592 21.775 41.623a586.263 586.263 0 0 1-21.668 41.752Zm33.795-13.603c5.647 14.009 10.481 28.041 14.438 41.644-13.689 3.358-28.148 6.182-43.099 8.363a578.373 578.373 0 0 0 28.661-50.007Zm-106.09 111.651c-9.732-10.053-19.464-21.24-29.089-33.495 9.411.427 19.036.748 28.768.748 9.839 0 19.571-.214 29.089-.748a406.923 406.923 0 0 1-28.768 33.495Zm-77.857-61.644a472.625 472.625 0 0 1-42.906-8.256c3.871-13.496 8.684-27.421 14.117-41.324 4.299 8.342 8.812 16.727 13.731 25.111 4.92 8.363 9.925 16.534 15.058 24.469Zm77.322-217.741c9.732 10.053 19.464 21.239 29.09 33.495-9.412-.428-19.037-.748-28.769-.748-9.839 0-19.571.213-29.089.748a406.746 406.746 0 0 1 28.768-33.495Zm-77.429 61.643a578.138 578.138 0 0 0-28.661 49.901 448.524 448.524 0 0 1-14.438-41.644 498.321 498.321 0 0 1 43.099-8.257ZM84.89 282.417c-37.045-15.786-61.001-36.512-61.001-52.939s23.956-37.26 61.002-52.938c8.983-3.871 18.822-7.336 28.982-10.566 5.968 20.491 13.817 41.837 23.528 63.718a495.463 495.463 0 0 0-23.207 63.398 318.486 318.486 0 0 1-29.303-10.673Zm56.297 149.51c-14.224-8.128-20.405-39.228-15.593-79.183 1.155-9.839 3.038-20.213 5.348-30.779 20.49 5.027 42.885 8.898 66.434 11.422a510.61 510.61 0 0 0 43.527 52.318c-34.116 31.699-66.135 49.067-87.909 49.067a24.964 24.964 0 0 1-11.807-2.824v-.021Zm248.2-79.718c4.919 39.977-1.155 71.055-15.294 79.311-3.122 1.883-7.208 2.717-12.02 2.717-21.667 0-53.794-17.261-87.91-48.768 14.652-15.357 29.303-32.832 43.228-52.189a488.816 488.816 0 0 0 66.542-11.507c2.417 10.566 4.277 20.704 5.454 30.436Zm40.276-69.792c-8.984 3.871-18.823 7.336-28.983 10.566a502.258 502.258 0 0 0-23.528-63.719c9.625-21.752 17.347-42.992 23.207-63.397 10.374 3.23 20.192 6.802 29.41 10.673 37.047 15.785 61.002 36.511 61.002 52.938-.107 16.427-24.062 37.26-61.108 52.939Z" fill="#fff"/><path d="M257.219 277.305a47.827 47.827 0 1 0 0-95.653 47.827 47.827 0 0 0 0 95.653Z" fill="#fff"/></svg>