<svg width="448" height="448" fill="none" xmlns="http://www.w3.org/2000/svg"><path fill-rule="evenodd" clip-rule="evenodd" d="M43.75 0h360.5C428.412 0 448 19.587 448 43.75v360.5c0 24.162-19.588 43.75-43.75 43.75H43.75C19.587 448 0 428.412 0 404.25V43.75C0 19.587 19.587 0 43.75 0Zm233.572 400.299v-43.803c7.942 6.662 16.57 11.658 25.881 14.989 9.313 3.331 18.716 4.996 28.21 4.996 5.57 0 10.43-.501 14.585-1.506 4.153-1.004 7.623-2.395 10.407-4.174 2.784-1.78 4.862-3.879 6.231-6.297 1.369-2.419 2.054-5.042 2.054-7.871 0-3.833-1.095-7.255-3.286-10.266-2.192-3.012-5.182-5.795-8.971-8.35-3.787-2.555-8.284-5.019-13.488-7.392a463.561 463.561 0 0 0-16.843-7.255c-15.338-6.388-26.773-14.19-34.304-23.407-7.532-9.217-11.298-20.351-11.298-33.4 0-10.221 2.055-19.005 6.163-26.35 4.108-7.347 9.699-13.392 16.774-18.138 7.076-4.745 15.27-8.236 24.582-10.471 9.311-2.236 19.171-3.354 29.579-3.354 10.224 0 19.286.616 27.183 1.848 7.897 1.232 15.178 3.126 21.841 5.681v40.929c-3.286-2.282-6.869-4.29-10.749-6.024a85.346 85.346 0 0 0-11.982-4.312 91.63 91.63 0 0 0-12.257-2.532c-4.063-.547-7.92-.821-11.571-.821-5.022 0-9.586.479-13.695 1.437-4.108.958-7.576 2.305-10.407 4.038-2.83 1.734-5.021 3.81-6.573 6.228-1.552 2.419-2.328 5.134-2.328 8.145 0 3.285.868 6.228 2.602 8.829 1.734 2.601 4.199 5.065 7.394 7.392 3.196 2.327 7.076 4.608 11.641 6.844 4.565 2.236 9.723 4.54 15.474 6.913 7.851 3.285 14.904 6.775 21.157 10.471 6.254 3.696 11.618 7.872 16.091 12.526a48.789 48.789 0 0 1 10.271 15.947c2.374 5.977 3.56 12.935 3.56 20.875 0 10.95-2.077 20.144-6.231 27.581-4.153 7.438-9.791 13.461-16.912 18.069-7.121 4.609-15.406 7.917-24.855 9.924-9.449 2.008-19.423 3.012-29.922 3.012-10.773 0-21.02-.913-30.743-2.738-9.723-1.825-18.145-4.562-25.265-8.213Zm-17.447-151.727h-56.193v160.053h-44.514V248.572H103.25v-35.947h156.625v35.947Z" fill="#fff"/></svg>