<svg width="326" height="435" viewBox="0 0 326 435" fill="none" xmlns="http://www.w3.org/2000/svg">
<path d="M81.5176 0.333496H128.197V19.8528H101.037V39.3721H128.197V58.8914H81.5176V0.333496Z" fill="white"/>
<path d="M137.523 0.333496H184.221V17.3178H157.061V20.7038H184.221V59.7425H137.523V41.9252H164.684V38.5211H137.523V0.333496Z" fill="white"/>
<path d="M193.561 0.333496H240.222V17.3178H213.062V20.7038H240.222V59.7425H193.561V41.9252H220.721V38.5211H193.561V0.333496Z" fill="white"/>
<path fill-rule="evenodd" clip-rule="evenodd" d="M162.8 434.901L37.065 399.991L0 85.7441H325.925L288.879 399.954L162.8 434.901ZM73.2789 227.993L76.7373 266.524H210.312L205.84 316.499L162.854 328.124H162.818L119.904 316.536L117.152 285.808H78.4575L83.8534 346.322L162.8 368.231L241.873 346.322L251.506 238.332L252.447 227.993L259.4 149.97H66.3439L69.8567 188.519H217.175L213.662 227.993H73.2789V227.993Z" fill="white"/>
</svg>
