<svg width="756" height="440" viewBox="0 0 756 440" fill="none" xmlns="http://www.w3.org/2000/svg">
<path d="M756 428.17C744.997 432.345 732.852 432.335 721.855 428.145C710.858 423.954 701.771 415.871 696.307 405.421L587.633 254.677L571.883 233.602L445.788 405.611C440.653 415.622 432.059 423.415 421.612 427.532C411.165 431.649 399.581 431.808 389.025 427.981L551.502 209.336L400.365 11.8296C411.233 7.90142 423.117 7.84935 434.019 11.6821C444.92 15.5149 454.171 22.9984 460.215 32.8726L572.859 185.481L686.133 33.5045C691.308 23.6714 699.904 16.0884 710.288 12.197C720.672 8.30567 732.12 8.37731 742.455 12.3983L683.802 90.4721L604.359 194.202C602.153 196.176 600.388 198.595 599.179 201.301C597.97 204.008 597.345 206.94 597.345 209.905C597.345 212.87 597.97 215.802 599.179 218.509C600.388 221.215 602.153 223.634 604.359 225.608L755.685 428.202L756 428.17ZM0.0633779 206.619L13.2934 141.057C49.6444 11.4189 197.82 -42.5155 299.754 37.7383C359.447 84.7848 374.346 151.389 371.417 226.461H35.1544C29.7049 360.523 126.158 441.472 249.48 400.113C269.472 392.895 287.367 380.815 301.561 364.957C315.755 349.098 325.806 329.955 330.813 309.243C337.334 288.2 348.075 284.598 367.794 290.664C364.508 316.333 355.462 340.919 341.336 362.574C327.211 384.23 308.373 402.39 286.241 415.69C249.682 435.748 207.737 443.698 166.403 438.403C125.069 433.109 86.4615 414.841 56.1019 386.211C26.0833 352.321 7.94077 309.511 4.44188 264.313C4.44188 256.888 1.92188 249.937 0.220878 243.27C0.0675368 231.064 -0.00596475 218.858 0.000377883 206.651L0.0633779 206.619ZM35.5639 197.583H339.665C337.775 100.393 276.633 31.4507 195.08 30.8188C104.297 29.555 39.3439 96.9809 35.3434 197.14L35.5639 197.583Z" fill="white"/>
</svg>
