<svg width="310" height="468" viewBox="0 0 310 468" fill="none" xmlns="http://www.w3.org/2000/svg">
<path fill-rule="evenodd" clip-rule="evenodd" d="M85.5412 0C38.1309 0 0.0012304 40.0335 0.0012304 89.076C0.0012304 118.891 14.1061 145.373 35.7866 161.538C24.6127 169.964 15.5555 180.907 9.34115 193.49C3.12676 206.074 -0.0720246 219.948 0.0012304 234C0.0012304 263.835 14.1061 290.296 35.7866 306.462C24.6127 314.888 15.5555 325.831 9.34115 338.414C3.12676 350.998 -0.0720246 364.872 0.0012304 378.924C0.0012304 427.966 38.1309 468 85.5412 468C132.932 468 171.081 427.966 171.081 378.924V303.615C186.064 316.188 204.951 323.081 224.459 323.096C271.869 323.076 309.999 283.043 309.999 234C309.999 204.165 295.913 177.704 274.213 161.538C285.387 153.112 294.444 142.169 300.659 129.586C306.873 117.002 310.072 103.128 309.999 89.076C309.999 40.0335 271.869 0 224.459 0H85.5412V0ZM32.1441 89.076C32.1441 58.0515 56.2077 33.2085 85.5412 33.2085H138.919V144.944H85.5412C56.2077 144.944 32.1441 120.081 32.1441 89.076V89.076ZM224.459 144.924H171.081V33.189H224.459C253.812 33.189 277.856 58.0515 277.856 89.076C277.856 120.081 253.812 144.924 224.459 144.924ZM32.1635 234C32.1635 202.995 56.227 178.133 85.5606 178.133H138.938V289.867H85.5412C56.1883 289.867 32.1441 265.005 32.1441 234H32.1635ZM171.081 234C171.081 202.995 195.145 178.133 224.478 178.133C253.831 178.133 277.875 202.976 277.875 234C277.875 265.005 253.831 289.867 224.478 289.867C195.145 289.867 171.101 265.024 171.101 234H171.081ZM32.1635 378.924C32.1635 347.919 56.227 323.076 85.5606 323.076H138.938V378.924C138.938 409.948 114.913 434.792 85.5606 434.792C56.227 434.792 32.1635 409.948 32.1635 378.924Z" fill="white"/>
</svg>
