<svg width="329" height="440" viewBox="0 0 329 440" fill="none" xmlns="http://www.w3.org/2000/svg">
<path d="M38.0195 0.696777H57.7961V20.2357H75.8911V0.696777H95.6676V59.8437H75.8911V40.0488H57.7961V59.8437H38.0378V0.696777H38.0195Z" fill="white"/>
<path d="M121.654 20.3088H104.254V0.696777H158.85V20.3088H141.431V59.8437H121.654V20.3088Z" fill="white"/>
<path d="M167.514 0.696777H188.131L200.816 21.4786L213.482 0.696777H234.1V59.8437H214.414V30.5261L200.816 51.5638H200.469L186.852 30.5444V59.8437H167.514V0.696777V0.696777Z" fill="white"/>
<path d="M243.934 0.696777H263.728V40.3047H291.511V59.8619H243.934V0.696777V0.696777Z" fill="white"/>
<path fill-rule="evenodd" clip-rule="evenodd" d="M37.3963 404.124L0 86.9131H329L291.585 404.087L164.317 439.364L37.3963 404.124ZM113.011 230.485L109.466 190.639H258.338L261.811 151.744H66.9698L77.4612 269.398H212.296L207.782 319.845L164.39 331.579H164.354L121.035 319.882L118.257 288.864H79.1793L84.6261 349.949L164.317 372.065L244.136 349.949L253.86 240.94L254.811 230.503H113.011V230.485Z" fill="white"/>
</svg>
