<svg width="435" height="464" viewBox="0 0 435 464" fill="none" xmlns="http://www.w3.org/2000/svg">
<path d="M0 0V464H435V0H0ZM236.733 361.87C236.733 407.027 211.876 427.642 175.662 427.642C142.944 427.642 124.006 409.629 114.296 387.771L147.605 366.328C154.021 378.442 159.847 388.699 173.922 388.699C187.314 388.699 195.859 383.098 195.859 361.257V213.042H236.733V361.87ZM333.427 427.642C295.458 427.642 270.896 408.386 258.949 383.098L292.258 362.599C301.004 377.829 312.454 389.114 332.557 389.114C349.445 389.114 360.335 380.099 360.335 367.571C360.335 352.657 349.258 347.37 330.522 338.571L320.331 333.914C290.813 320.558 271.3 303.671 271.3 268.142C271.3 235.414 294.697 210.557 331.113 210.557C357.135 210.557 375.778 220.185 389.185 245.456L357.337 267.214C350.346 253.858 342.764 248.571 331.019 248.571C319.088 248.571 311.507 256.658 311.507 267.214C311.507 280.273 319.088 285.542 336.659 293.729L346.85 298.385C381.619 314.227 401.132 330.501 401.132 366.941C401.132 406.099 372.189 427.626 333.443 427.626L333.427 427.642Z" fill="white"/>
</svg>
