<svg width="439" height="456" viewBox="0 0 439 456" fill="none" xmlns="http://www.w3.org/2000/svg">
<path d="M218.952 239.713C217.282 242.09 215.874 244.047 214.519 246.024C192.91 277.873 171.307 309.718 149.711 341.56C129.621 371.178 109.509 400.78 89.377 430.364C89.0429 430.828 88.6149 431.217 88.1209 431.505C87.6268 431.793 87.0778 431.974 86.5094 432.036C58.0861 431.79 29.6698 431.482 1.26046 431.11C0.945343 431.11 0.619725 431.016 0 430.921C0.229458 430.326 0.496082 429.747 0.79829 429.186C20.6225 398.41 40.4467 367.641 60.2709 336.879C77.8543 309.616 95.4482 282.361 113.053 255.112C132.562 224.834 152.06 194.535 171.548 164.215C174.426 159.745 177.42 155.359 180.151 150.804C180.851 149.585 181.062 148.145 180.739 146.776C175.487 130.01 170.13 113.286 164.784 96.5626C162.494 89.3998 160.099 82.2791 157.956 75.0743C157.263 72.7603 156.118 72.0556 153.755 72.0661C135.898 72.1397 118.147 72.1187 100.343 72.1187C96.9607 72.1187 96.9502 72.1187 96.9502 68.774C96.9502 46.8543 96.9502 24.9347 96.8872 3.01509C96.8872 0.574898 97.6855 0.0279589 99.9753 0.0279589C135.821 0.0910672 171.674 0.0910672 207.534 0.0279589C208.367 -0.0786786 209.21 0.121914 209.906 0.592267C210.602 1.06262 211.103 1.77056 211.316 2.58385C230.223 50.2026 249.129 97.8038 268.036 145.387C290.094 200.881 312.152 256.381 334.21 311.888C341.059 329.117 347.96 346.335 354.735 363.605C355.544 365.709 356.384 366.109 358.506 365.457C377.297 359.64 396.13 353.981 414.911 348.154C417.275 347.418 418.136 347.913 418.871 350.258C425.278 370.421 431.812 390.542 438.303 410.684C438.524 411.378 438.692 412.083 438.954 413.051C437.61 413.545 436.349 414.103 435.057 414.46C392.342 428.015 349.651 441.576 306.984 455.144C304.947 455.786 304.338 455.091 303.655 453.377C290.623 420.308 277.56 387.254 264.465 354.213C251.657 321.859 238.843 289.506 226.021 257.152C224.099 252.293 222.208 247.413 220.286 242.553C219.981 241.722 219.561 240.997 218.952 239.713Z" fill="white"/>
</svg>
