<svg width="201" height="447" viewBox="0 0 201 447" fill="none" xmlns="http://www.w3.org/2000/svg">
<path d="M196.929 177.402C173.367 73.7312 117.698 39.738 111.716 26.711C105.146 17.4719 98.0717 0 98.0717 0C98.0016 0.363415 98.0016 0.587054 97.9316 0.950469V1.17411C97.9316 1.46764 97.8616 1.60741 97.8616 1.90094V2.19447H97.7915V3.13096H97.7215C97.7215 3.27073 97.7215 3.49437 97.6514 3.56426V3.99756C97.6514 4.13734 97.6514 4.29109 97.5814 4.36098V4.72439C97.5814 4.94803 97.5814 5.15769 97.5113 5.31144V5.38133C97.499 5.70225 97.452 6.02092 97.3713 6.3318V6.47158C97.3012 6.54146 97.3012 6.61135 97.3012 6.69522V6.98874H97.2312V7.42205H97.1611V7.71557H97.0211V8.14887H96.951V8.51229H96.881V8.80582H96.8109V9.09934H96.7409V9.39287H96.6708V9.6864H96.6008V9.91004H96.5308V10.2036H96.4607V10.4971H96.3907C96.3206 10.4971 96.3206 10.567 96.3206 10.567V10.7068L96.2506 10.8465C96.2506 10.9863 96.1805 11.1401 96.1105 11.2798C96.0405 11.3497 96.0405 11.3497 96.0405 11.4196V11.5594H95.9704V11.6992H95.8303V12.0626H95.6902V12.2862H95.6202V12.3561H95.5502V12.4959H95.4801V12.7195H95.4101V12.8593H95.27V13.0829H95.2V13.2227H95.1299V13.3625H95.0599V13.5861H94.9898V13.7259H94.9198V13.7958H94.8498V13.9356H94.7097V14.1592H94.6396V14.2291H94.5696V14.3689H94.4995V14.5925H94.4295V14.6624H94.3594V14.8022H94.2894V14.872H94.2194V15.0957H94.0793V15.1656H94.0092V15.3053H93.9392V15.3752H93.8692V15.515H93.7991V15.6548C93.7291 15.6548 93.7291 15.7247 93.7291 15.7247V15.7946H93.659L93.4349 16.158C93.4349 16.158 93.2948 16.2977 93.2948 16.3816C93.2248 16.3816 93.2248 16.4515 93.2248 16.4515V16.5214H93.1547V16.5913H93.0847V16.731H92.9446V16.8009H92.8745V16.8708H92.8045V17.0805H92.7345V17.1504H92.6644V17.2203H92.5944V17.36H92.5243V17.2203H92.3843V17.2901H92.3142V17.4299H92.2442V17.5697H92.1741V17.6396H92.1041V17.7095H92.0341V17.7794H91.964V17.9191H91.8239V17.989H91.7539V18.1288H91.6838V18.1987H91.6138V18.2686H91.5438V18.4922H91.4737V18.5621H91.4037V18.632H91.3336V18.7019H91.2636V18.7718H91.1235V18.9115H91.0535V18.9814H90.9834V19.0513H90.9134V19.1911H90.8433V19.261H90.7032V19.3309H90.6332V19.4008H90.5632V19.5405H90.4931V19.6803H90.4231V19.7502H90.353V19.8201H90.213V19.89H90.1429V19.9598H90.0729V20.0996H90.0028V20.1695H89.9328V20.3093H89.8627V20.3792H89.7927V20.4491H89.7227V20.5189H89.6526V20.5888H89.5125V20.6587C89.4425 20.6587 89.4425 20.7286 89.4425 20.7286L89.3724 20.7985L89.3024 20.8684V21.0082H89.2324V21.078H89.1623V21.1479H89.0923V21.2178H89.0222L88.8821 21.3576V21.4275C88.7421 21.4974 88.7421 21.5673 88.588 21.721C88.588 21.721 88.4479 21.8608 88.3638 21.8608C88.1397 22.0006 87.8595 22.2941 87.6354 22.5177C87.4953 22.5876 87.3412 22.7414 87.2011 22.8113C86.907 23.1048 86.6128 23.3144 86.3186 23.5381C85.8843 23.9714 85.4361 24.2649 84.9318 24.6982H84.8617L81.4297 27.6894H81.3596C78.2217 30.4569 74.4955 34.0212 70.2649 38.2424L69.9007 38.6058C44.5034 64.8136 4.4533 119.48 0.292789 207.789C-0.141472 215.072 -0.0714418 222.2 0.36282 229.119V229.259C2.40805 264.063 13.3486 293.765 27.0629 317.932C32.4562 327.548 38.3677 336.284 44.3493 344.14C64.9277 371.228 85.9404 387.316 91.2636 391.244C99.5146 410.239 98.7721 443.002 98.7721 443.002L110.805 447C110.805 447 108.326 415.327 111.758 399.966C112.851 395.227 115.33 391.16 118.258 387.666C120.303 386.282 126.145 382.061 133.149 375.659C133.513 375.296 133.737 375.002 134.031 374.639C162.412 348.207 215.462 283.128 197.293 177.137L196.929 177.402Z" fill="white"/>
</svg>
