<svg width="410" height="447" viewBox="0 0 410 447" fill="none" xmlns="http://www.w3.org/2000/svg">
<path d="M205 447C198.626 447 192.7 445.339 187.165 442.466L130.715 410.037C122.236 405.522 126.485 403.88 129.038 403.059C140.481 399.365 142.605 398.544 154.495 391.957C155.763 391.136 157.477 391.547 158.745 392.368L202.037 417.426C203.714 418.247 205.857 418.247 207.125 417.426L376.473 322.566C378.15 321.745 379.008 320.103 379.008 318.051V128.741C379.008 126.689 378.169 125.047 376.473 124.226L207.125 29.7947C205.429 28.9738 203.304 28.9738 202.037 29.7947L32.6882 124.226C30.9923 125.047 30.135 127.099 30.135 128.741V318.051C30.135 319.693 30.9923 321.745 32.6882 322.566L78.9436 348.446C103.991 360.76 119.683 346.393 119.683 332.026V145.179C119.683 142.716 121.807 140.253 124.789 140.253H146.426C148.979 140.253 151.514 142.306 151.514 145.179V332.007C151.514 364.455 133.269 383.337 101.438 383.337C91.6723 383.337 84.0314 383.337 62.3945 373.075L17.835 348.446C12.4656 345.489 7.98164 341.152 4.84633 335.881C1.71102 330.61 0.0379786 324.596 0 318.461V129.152C0 116.837 6.78364 105.343 17.835 99.1859L187.184 4.30716C192.697 1.4764 198.804 0 205 0C211.196 0 217.303 1.4764 222.816 4.30716L392.184 99.1673C403.216 105.325 410 116.818 410 129.133V318.443C410 330.757 403.216 342.251 392.184 348.427L222.816 443.268C217.193 445.709 211.129 446.966 205 446.963V447ZM257.2 316.819C182.935 316.819 167.653 283.98 167.653 256.048C167.653 253.585 169.777 251.123 172.74 251.123H194.806C197.359 251.123 199.465 252.764 199.465 255.227C202.875 276.983 212.641 287.656 257.629 287.656C293.28 287.656 308.562 279.857 308.562 261.385C308.562 250.712 304.313 242.913 248.721 237.576C202.447 233.042 173.598 223.209 173.598 187.478C173.598 154.21 202.447 134.488 250.845 134.488C305.17 134.488 331.914 152.568 335.305 191.994C335.268 193.328 334.818 194.619 334.02 195.688C333.181 196.509 331.914 197.33 330.628 197.33H308.562C307.49 197.304 306.456 196.929 305.616 196.263C304.775 195.596 304.174 194.674 303.903 193.636C298.797 171.059 285.64 163.651 250.845 163.651C211.784 163.651 207.125 176.787 207.125 186.639C207.125 198.561 212.641 202.256 265.27 208.824C317.47 215.391 342.089 224.833 342.089 260.135C341.66 296.295 311.115 316.819 257.2 316.819Z" fill="white"/>
</svg>
