<svg width="412" height="426" viewBox="0 0 412 426" fill="none" xmlns="http://www.w3.org/2000/svg">
<path d="M411.569 261.33C411.322 260.58 410.982 259.864 410.555 259.2C408.083 254.549 402.073 253.147 392.648 255.1C363.236 261.135 351.855 257.407 347.73 254.745C371.594 218.392 391.208 174.477 401.806 133.51C406.643 114.872 415.996 70.9751 403.976 49.5504C403.214 48.0773 402.321 46.6754 401.308 45.3613C378.351 16.1442 344.707 0.43513 303.985 0.00912089C277.4 -0.274885 254.728 6.15075 248.575 8.51154C245.531 7.94203 242.471 7.45667 239.399 7.05601C231.697 5.66875 223.894 4.91478 216.069 4.80172C195.05 4.46446 176.894 9.48781 161.833 19.712C146.611 14.0142 76.7081 -9.48732 33.4435 21.1143C9.24163 38.2079 -1.89016 68.7385 0.261511 111.89C0.99059 126.409 9.27719 171.069 22.365 213.848C30.545 240.58 39.0449 261.809 47.8472 277.43C57.6809 295.073 67.8702 305.706 78.3263 309.203C86.2928 311.83 98.4738 311.741 111.366 296.263C122.549 282.91 134.082 269.853 145.953 257.105C153.688 261.277 162.064 263.531 170.67 263.797C170.67 263.821 170.67 263.845 170.67 263.868C169.174 265.647 167.71 267.452 166.278 269.282C160.25 276.915 158.987 278.512 139.604 282.506C134.092 283.642 119.439 286.642 119.226 296.902C119.185 298.953 119.748 300.971 120.844 302.706C124.881 310.214 137.239 313.534 138.893 313.942C162.633 319.853 183.438 315.575 198.855 301.889C198.553 341.491 200.225 380.311 204.99 392.203C208.92 402.019 218.541 426 248.913 426C253.359 426 258.267 425.468 263.655 424.331C295.343 417.551 309.106 403.564 314.423 372.749C317.091 357.306 321.572 321.717 324.008 299.955C324.31 298.712 324.648 297.825 325.022 297.541C325.022 297.541 326.266 296.689 332.615 298.073C332.873 298.13 333.134 298.172 333.397 298.197L337.914 298.588L338.181 298.606C353.242 299.298 372.163 296.085 383.188 290.973C394.64 285.648 415.303 272.637 411.551 261.33H411.569ZM34.7594 210.795C21.5293 167.573 13.8117 124.084 13.2071 111.907C11.2688 73.3536 20.6224 46.5328 40.9832 32.155C73.6495 9.09731 127.05 22.5698 149.598 29.8475L149.42 30.025C113.447 66.2712 114.3 128.255 114.425 132.054C114.425 133.51 114.531 135.586 114.709 138.444C115.314 148.846 116.487 168.265 113.393 190.24C110.548 210.653 116.843 230.64 130.696 245.071C132.118 246.562 133.63 247.964 135.177 249.277C129.006 255.863 115.616 270.454 101.337 287.583C91.2363 299.688 84.2656 297.363 81.9895 296.6C75.0188 294.292 67.5324 286.18 59.9571 273.134C51.4215 258.241 42.8326 237.065 34.795 210.795H34.7594ZM141.578 301.108C138.879 300.43 136.291 299.366 133.896 297.949C135.479 297.257 138.111 296.351 142.485 295.464C165.318 290.76 168.839 287.458 176.539 277.714C178.299 275.459 180.291 272.921 183.065 269.85C183.663 269.183 184.111 268.396 184.381 267.543C187.404 264.862 189.217 265.59 192.134 266.797C194.908 267.951 197.611 271.412 198.713 275.228C199.247 277.039 199.816 280.465 197.913 283.127C181.838 305.599 158.4 305.315 141.578 301.108ZM178.815 230.32L177.89 232.805C175.525 239.142 173.32 245.035 171.951 250.626C160.09 250.591 148.531 245.514 139.765 236.373C128.597 224.746 123.529 208.576 125.841 191.997C129.095 168.78 127.904 148.562 127.263 137.699L127.032 133.794C132.296 129.143 156.658 116.114 174.031 120.09C181.962 121.901 186.799 127.297 188.791 136.563C199.193 184.56 190.178 204.547 182.922 220.628C181.45 223.812 180.086 227.044 178.832 230.32H178.815ZM309.764 311.475C309.462 314.617 309.124 318.149 308.662 322.054L306.066 329.829C305.86 330.447 305.752 331.094 305.746 331.746C305.639 340.177 304.785 343.266 303.701 347.188C302.562 351.253 301.3 355.851 300.5 365.951C298.544 391.05 284.887 405.481 257.52 411.32C230.579 417.089 225.796 402.516 221.599 389.647C221.161 388.296 220.699 386.953 220.212 385.618C216.389 375.216 216.834 360.554 217.42 340.266C217.705 330.308 216.976 306.522 211.552 293.298C211.623 288.097 211.73 282.808 211.89 277.465C211.905 276.785 211.809 276.108 211.605 275.459C211.433 274.212 211.171 272.978 210.823 271.767C208.654 264.17 203.354 257.815 196.953 255.171C194.428 254.123 189.786 252.206 184.203 253.626C185.394 248.727 187.457 243.207 189.698 237.207L190.64 234.687C191.707 231.847 193.023 228.918 194.428 225.811C202.003 208.984 212.388 185.944 201.114 133.9C196.899 114.41 182.798 104.896 161.424 107.097C148.62 108.428 136.884 113.594 131.033 116.54C129.86 117.133 128.698 117.748 127.548 118.386C129.184 98.7544 135.354 62.0466 158.418 38.8292C160.13 37.106 161.928 35.4708 163.806 33.9301C164.741 33.7514 165.623 33.3629 166.385 32.794C179.757 22.6763 196.526 17.7062 216.211 18.008C223.502 18.1322 230.473 18.6115 237.088 19.4458C271.586 25.7471 294.774 45.1305 308.857 61.7449C323.332 78.8207 331.174 96.0208 334.304 105.304C310.778 102.926 294.774 107.559 286.647 119.15C269.007 144.32 296.321 193.204 309.444 216.706C311.845 221.001 313.925 224.729 314.583 226.291C318.851 236.639 324.382 243.544 328.418 248.585C329.663 250.129 330.872 251.62 331.779 252.934C324.666 254.993 311.863 259.732 313.019 283.411C312.787 286.18 312.254 291.346 311.525 297.878C310.707 301.57 310.28 306.043 309.747 311.475H309.764ZM325.591 282.701C324.879 267.933 330.392 266.389 336.207 264.773C337.013 264.551 337.813 264.308 338.607 264.046C339.358 264.71 340.154 265.321 340.99 265.874C351.126 272.548 369.14 273.347 394.462 268.253C390.87 271.394 385.233 275.353 377.515 278.921C370.225 282.293 358.026 284.831 346.449 285.382C333.646 285.985 327.138 283.962 325.591 282.701V282.701ZM335.727 118.138C335.62 124.35 334.766 130.013 333.86 135.906C332.882 142.261 331.868 148.828 331.601 156.798C331.352 164.537 332.312 172.596 333.255 180.406C335.158 196.151 337.096 212.357 329.574 228.35C328.322 226.142 327.205 223.859 326.231 221.516C324.474 217.779 322.546 214.124 320.452 210.564C309.498 190.967 283.873 145.065 296.979 126.356C303.736 116.718 320.843 116.309 335.727 118.138V118.138ZM339.781 242.621C339.281 241.985 338.777 241.352 338.27 240.722L337.647 239.941C350.557 218.64 348.032 197.571 345.774 178.897C344.849 171.229 343.996 163.987 344.209 157.206C344.44 149.982 345.383 143.805 346.307 137.823C347.445 130.457 348.619 122.842 348.281 113.86C348.545 112.756 348.617 111.615 348.494 110.487C347.676 101.861 337.825 76.0872 317.731 52.7454C304.635 37.3396 288.32 24.9803 269.932 16.5347C281.777 14.1167 293.853 13.0095 305.941 13.2331C342.431 14.0497 371.292 27.6819 391.724 53.7572C392.16 54.3219 392.558 54.9149 392.915 55.5322C405.772 79.6017 388.007 166.916 339.799 242.621H339.781ZM183.011 134.06C182.567 137.255 177.499 141.568 171.968 141.568C171.486 141.566 171.005 141.531 170.528 141.462C166.917 140.83 163.692 138.826 161.53 135.87C160.712 134.805 159.396 132.711 159.645 130.812C159.727 130.282 159.916 129.774 160.2 129.32C160.485 128.865 160.858 128.473 161.299 128.167C163.397 126.587 167.558 126.001 172.146 126.64C177.766 127.421 183.563 130.066 182.994 134.06H183.011ZM324.026 126.764C324.221 128.184 323.155 130.315 321.305 132.267C319.39 134.349 316.839 135.741 314.05 136.225C313.608 136.286 313.162 136.315 312.716 136.314C307.506 136.314 303.096 132.161 302.758 129.729C302.331 126.587 307.453 124.226 312.716 123.481C318.015 122.735 323.599 123.64 324.026 126.764V126.764Z" fill="white"/>
</svg>
