<svg width="514" height="458" viewBox="0 0 514 458" fill="none" xmlns="http://www.w3.org/2000/svg">
<path d="M514 229.478C514 195.47 471.414 163.236 406.113 143.259C421.192 76.717 414.498 23.7574 384.981 6.7958C377.828 2.79004 369.734 0.773723 361.538 0.956555V24.2707C366.351 24.2707 370.222 25.2333 373.473 27.0086C387.697 35.1792 393.878 66.2363 389.066 106.213C387.911 116.052 386.029 126.404 383.719 136.97C361.851 131.701 339.657 127.892 317.284 125.57C303.955 107.181 289.414 89.7032 273.757 73.2519C307.873 41.5532 339.892 24.1852 361.666 24.1852V0.849609C332.877 0.849609 295.21 21.3618 257.116 56.932C219.043 21.5971 181.356 1.27739 152.587 1.27739V24.5916C174.255 24.5916 206.381 41.874 240.497 73.3589C225.845 88.7591 211.194 106.213 197.269 125.57C174.85 127.866 152.616 131.711 130.728 137.077C128.311 126.618 126.535 116.479 125.273 106.747C120.354 66.7496 126.428 35.6926 140.567 27.4363C143.689 25.5541 147.775 24.6985 152.587 24.6985V1.38434C143.818 1.38434 135.84 3.26658 128.952 7.22358C99.5422 24.1852 92.9544 77.0164 108.119 143.366C43.0321 163.471 0.660156 195.577 0.660156 229.478C0.660156 263.487 43.246 295.721 108.547 315.677C93.4677 382.24 100.163 435.199 129.68 452.14C136.481 456.118 144.438 458 153.208 458C181.997 458 219.664 437.488 257.758 401.918C295.831 437.274 333.497 457.572 362.287 457.572C370.545 457.747 378.702 455.724 385.922 451.712C415.332 434.772 421.92 381.94 406.755 315.591C471.628 295.614 514 263.38 514 229.478ZM377.751 159.686C373.687 173.671 368.976 187.46 363.634 201.009C354.889 184 345.288 167.445 334.866 151.408C349.731 153.611 364.062 156.327 377.772 159.686H377.751ZM329.839 271.123C321.69 285.24 313.306 298.651 304.622 311.099C273.228 313.866 241.653 313.902 210.253 311.206C192.242 285.479 176.491 258.242 163.175 229.799C176.47 201.29 192.154 173.957 210.06 148.093C241.446 145.32 273.014 145.277 304.408 147.964C313.092 160.413 321.583 173.717 329.732 187.748C337.689 201.437 344.919 215.34 351.507 229.371C344.846 243.573 337.617 257.501 329.839 271.123V271.123ZM363.634 257.52C369.281 271.529 374.115 285.561 378.072 299.164C364.383 302.522 349.924 305.346 334.973 307.527C345.352 291.345 354.917 274.655 363.634 257.52V257.52ZM257.544 369.171C247.812 359.118 238.08 347.931 228.455 335.676C237.866 336.103 247.491 336.424 257.223 336.424C267.062 336.424 276.794 336.21 286.312 335.676C276.901 347.931 267.169 359.118 257.544 369.171ZM179.687 307.527C165.266 305.438 150.948 302.683 136.781 299.271C140.652 285.775 145.465 271.85 150.898 257.947C155.197 266.289 159.71 274.674 164.629 283.058C169.549 291.421 174.554 299.592 179.687 307.527ZM257.009 89.7857C266.741 99.8386 276.473 111.025 286.099 123.281C276.687 122.853 267.062 122.533 257.33 122.533C247.491 122.533 237.759 122.746 228.241 123.281C237.652 111.025 247.384 99.8386 257.009 89.7857ZM179.58 151.429C169.204 167.577 159.638 184.231 150.919 201.33C145.427 187.694 140.608 173.795 136.481 159.686C150.17 156.434 164.629 153.611 179.58 151.429ZM84.8907 282.417C47.8446 266.631 23.8888 245.905 23.8888 229.478C23.8888 213.051 47.8446 192.218 84.8907 176.54C93.8741 172.669 103.713 169.204 113.873 165.974C119.841 186.465 127.69 207.811 137.401 229.692C128.233 250.273 120.479 271.454 114.194 293.09C104.258 290.013 94.478 286.451 84.8907 282.417V282.417ZM141.187 431.927C126.963 423.799 120.782 392.699 125.594 352.744C126.749 342.905 128.632 332.531 130.942 321.965C151.432 326.992 173.827 330.863 197.376 333.387C210.705 351.775 225.247 369.253 240.903 385.705C206.787 417.404 174.768 434.772 152.994 434.772C148.886 434.816 144.83 433.847 141.187 431.948V431.927ZM389.387 352.209C394.306 392.186 388.232 423.264 374.093 431.52C370.971 433.403 366.885 434.237 362.073 434.237C340.406 434.237 308.279 416.976 274.163 385.469C288.815 370.112 303.466 352.637 317.391 333.28C339.81 330.983 362.044 327.138 383.933 321.773C386.35 332.339 388.21 342.477 389.387 352.209V352.209ZM429.663 282.417C420.679 286.288 410.84 289.753 400.68 292.983C394.284 271.237 386.424 249.949 377.152 229.264C386.777 207.512 394.499 186.272 400.359 165.867C410.733 169.097 420.551 172.669 429.769 176.54C466.816 192.325 490.771 213.051 490.771 229.478C490.664 245.905 466.709 266.738 429.663 282.417V282.417Z" fill="white"/>
<path d="M257.219 277.305C269.903 277.305 282.068 272.266 291.037 263.297C300.006 254.328 305.045 242.163 305.045 229.479C305.045 216.794 300.006 204.629 291.037 195.66C282.068 186.691 269.903 181.652 257.219 181.652C244.534 181.652 232.37 186.691 223.401 195.66C214.431 204.629 209.393 216.794 209.393 229.479C209.393 242.163 214.431 254.328 223.401 263.297C232.37 272.266 244.534 277.305 257.219 277.305V277.305Z" fill="white"/>
</svg>
