<svg width="455" height="432" viewBox="0 0 455 432" fill="none" xmlns="http://www.w3.org/2000/svg">
<path d="M315.348 301.489C331.841 300.065 344.6 285.545 343.785 268.197C342.894 250.849 328.694 236.917 311.385 236.917H310.229C301.639 237.223 293.523 240.933 287.664 247.229C281.806 253.525 278.684 261.894 278.986 270.494C279.555 279.585 283.271 286.988 288.351 292.378C268.483 331.061 238.662 359.494 193.466 383.391C163.077 399.296 130.981 405.294 99.7379 401.043C73.6138 397.341 53.177 385.668 40.6647 366.896C21.9342 338.444 20.2279 307.753 35.8304 277.042C47.2052 254.834 64.2485 238.644 75.6233 230.672C72.1894 221.139 69.5267 211.345 67.6609 201.385C-16.4558 261.705 -7.88681 344.157 17.6686 383.125C36.7025 411.558 75.6233 429.741 118.222 429.741C129.597 429.741 141.54 428.906 153.162 426.059C227.041 411.843 282.986 367.485 315.082 302.077L315.348 301.489ZM416.735 230.387C372.753 178.608 307.954 150.175 234.093 150.175H224.425C219.629 139.66 208.557 133.111 196.026 133.111H195.173C177.295 133.111 163.361 148.486 163.949 166.385C164.518 183.429 179.001 197.665 196.329 197.665H197.732C203.878 197.427 209.826 195.423 214.865 191.893C219.904 188.362 223.822 183.454 226.15 177.754H236.672C280.446 177.754 321.888 190.547 359.672 215.563C388.62 234.639 409.379 259.656 421.039 289.531C431.238 313.978 430.688 337.875 420.186 357.805C403.976 389.066 376.696 405.579 340.638 405.579C317.907 405.579 295.764 398.461 284.389 393.355C277.564 399.012 266.189 408.407 257.962 414.101C282.948 425.452 308.238 432 332.656 432C388.052 432 429.229 400.739 444.869 370.579C461.893 336.451 460.49 279.016 417.001 229.818L416.735 230.387ZM123.037 311.701C123.606 328.764 138.071 342.981 155.418 342.981H156.555C160.824 342.884 165.031 341.933 168.927 340.184C172.823 338.435 176.33 335.923 179.242 332.795C182.153 329.668 184.41 325.989 185.88 321.975C187.349 317.961 188.001 313.693 187.798 309.423C187.798 292.34 173.03 278.162 155.702 278.162H154.565C153.427 278.162 151.721 278.162 150.28 278.712C126.715 238.891 116.762 196.203 120.478 150.175C122.753 115.478 134.128 85.3181 154.546 60.3016C171.608 38.9673 203.704 28.4141 225.581 27.8826C286.93 26.7248 312.504 103.255 314.476 133.681L342.875 142.222C336.334 48.9132 278.417 0 223.022 0C171.001 0 123.037 37.8285 103.7 93.29C77.2916 167.22 94.6193 238.34 127.019 295.225C124.175 298.927 122.469 305.456 123.037 311.701V311.701Z" fill="white"/>
</svg>
