<svg width="598" height="448" viewBox="0 0 598 448" fill="none" xmlns="http://www.w3.org/2000/svg">
<path d="M282.01 338.694C281.45 339.702 281.73 339.254 282.01 338.694ZM514.759 257.5C495.961 257.5 477.425 261.793 460.571 270.099C455.058 258.994 449.359 249.288 448.425 242.008C447.304 233.516 446.089 228.476 447.397 218.397C448.705 208.318 454.591 194.039 454.498 193.012C454.404 191.986 453.19 186.853 441.137 186.759C429.085 186.666 418.715 189.093 417.5 192.266C415.367 198.063 413.711 204.025 412.548 210.091C410.4 221.01 388.463 260.02 376.037 280.365C371.926 272.432 368.469 265.433 367.722 259.834C366.6 251.341 365.386 246.301 366.694 236.222C368.002 226.143 373.888 211.864 373.794 210.838C373.701 209.811 372.486 204.678 360.453 204.585C348.419 204.491 338.03 206.918 336.815 210.091C335.601 213.264 334.293 220.73 331.864 227.916C329.435 235.102 300.192 300.057 292.549 316.949C288.625 325.535 285.262 332.441 282.833 337.107C282.459 337.854 282.179 338.32 281.992 338.694C282.272 338.227 282.459 337.761 282.459 337.947C280.403 341.96 279.189 344.2 279.189 344.2V344.293C277.601 347.28 275.825 349.986 274.985 349.986C274.424 349.986 273.209 342.147 275.265 331.414C279.656 308.83 290.027 273.739 289.933 272.526C289.84 271.873 291.895 265.806 283.113 262.54C274.611 259.46 271.528 264.593 270.78 264.593C270.033 264.593 269.472 266.46 269.472 266.46C269.472 266.46 278.909 226.89 251.347 226.89C234.156 226.89 210.239 245.741 198.485 262.82C191.105 266.833 175.128 275.512 158.311 284.751L138.972 295.391C138.505 294.924 138.131 294.457 137.664 293.991C104.216 258.34 42.4789 233.142 45.0949 185.266C46.0292 167.814 52.102 121.991 163.824 66.3693C255.383 20.8263 328.575 33.332 341.188 61.1431C359.313 100.806 302.041 174.627 206.969 185.266C170.719 189.279 151.678 175.28 146.913 170.054C141.961 164.548 141.214 164.268 139.345 165.295C136.262 166.974 138.224 171.827 139.345 174.72C142.148 182.093 153.827 195.159 173.727 201.692C191.198 207.384 233.689 210.558 285.056 190.679C342.776 168.468 387.715 106.593 374.523 54.7969C361.107 2.16119 273.733 -15.1041 191.123 14.2002C141.887 31.6521 88.6512 59.0899 50.3642 94.8337C4.86466 137.39 -2.40406 174.44 0.58565 189.933C11.2365 244.901 87.0816 280.739 117.427 307.243L113.223 309.576C97.994 317.136 40.1806 347.373 25.6992 379.29C9.34923 415.501 28.4086 441.445 40.9093 444.992C79.9623 455.818 119.931 436.312 141.419 404.302C162.908 372.291 160.292 330.481 150.389 311.443C150.295 311.163 150.108 310.976 150.015 310.696C161.226 304.063 172.532 297.592 183.929 291.284C180.192 301.363 177.483 313.496 176.081 331.041C174.4 351.573 182.902 378.171 193.926 388.623C198.784 393.196 204.652 393.289 208.314 393.289C221.207 393.289 227 382.65 233.446 369.958C241.388 354.466 248.395 336.454 248.395 336.454C248.395 336.454 239.613 385.17 263.624 385.17C272.406 385.17 281.188 373.878 285.112 368.091V368.185C285.112 368.185 285.299 367.811 285.766 367.065C286.7 365.665 287.168 364.825 287.168 364.825V364.545C290.718 358.479 298.472 344.573 310.151 321.615C325.286 291.938 339.749 254.887 339.749 254.887C341.15 263.025 343.094 271.07 345.542 278.965C348.158 287.831 353.67 297.537 358.061 306.963C354.511 311.816 352.362 314.616 352.362 314.616C352.362 314.69 352.399 314.746 352.455 314.802C349.652 318.535 346.476 322.548 343.206 326.468C331.266 340.654 317.046 356.892 315.177 361.559C312.935 367.065 313.496 371.171 317.793 374.344C320.97 376.771 326.576 377.144 332.462 376.677C343.206 375.931 350.774 373.318 354.417 371.638C361.138 369.232 367.49 365.903 373.29 361.745C384.968 353.159 392.069 340.84 391.415 324.602C391.041 315.642 388.145 306.683 384.595 298.284C385.622 296.791 386.744 295.204 387.771 293.617C399.929 275.496 410.884 256.598 420.565 237.043C421.966 245.181 423.891 253.226 426.357 261.121C428.599 268.681 432.991 276.987 437.008 285.106C419.63 299.198 408.886 315.53 405.168 326.263C398.254 346.141 403.673 355.1 413.856 357.154C418.434 358.087 424.974 355.94 429.833 353.887C437.045 351.479 443.847 347.989 449.994 343.528C461.673 334.942 472.978 322.903 472.212 306.571C471.931 299.198 469.876 291.826 467.167 284.733C481.835 278.573 500.894 275.214 525.186 278.013C577.206 284.08 587.39 316.557 585.428 330.089C583.466 343.621 572.535 351.181 568.891 353.421C565.248 355.66 564.126 356.5 564.407 358.18C564.874 360.607 566.556 360.513 569.639 359.953C573.936 359.207 596.92 348.941 597.948 323.836C599.442 292.106 568.891 257.202 514.796 257.482L514.759 257.5ZM113.783 392.543C96.5926 411.301 72.5068 418.394 62.1362 412.421C51.0182 405.963 55.4094 378.357 76.5989 358.367C89.492 346.235 106.122 335.035 117.147 328.129C119.669 326.636 123.313 324.396 127.798 321.69C128.162 321.457 128.536 321.239 128.919 321.037C129.76 320.477 130.694 320.01 131.628 319.45C139.364 347.821 131.908 372.832 113.783 392.524V392.543ZM239.314 307.243C233.334 321.895 220.74 359.225 213.06 357.266C206.52 355.586 202.503 327.121 211.752 299.124C216.424 285.031 226.327 268.233 232.213 261.7C241.649 251.154 252.02 247.795 254.449 251.994C257.719 257.5 243.051 298.097 239.314 307.243ZM343.019 356.706C340.496 358.012 338.161 358.852 337.04 358.199C336.199 357.732 338.067 355.959 338.067 355.959C338.067 355.959 351.054 342.054 356.192 335.707C359.182 331.974 362.639 327.588 366.376 322.735C366.376 323.202 366.47 323.668 366.47 324.228C366.357 340.934 350.288 352.226 343 356.706H343.019ZM422.994 338.507C421.125 337.201 421.405 332.814 427.665 319.189C430.094 313.869 435.7 304.91 445.416 296.324C446.519 299.572 447.117 302.969 447.192 306.403C447.098 327.401 432.056 335.241 422.994 338.507Z" fill="white"/>
</svg>
