<svg width="425" height="425" viewBox="0 0 425 425" fill="none" xmlns="http://www.w3.org/2000/svg">
<path d="M212.5 0C95.3509 0 0 95.3509 0 212.5C0 329.649 95.3509 425 212.5 425C329.649 425 425 329.649 425 212.5C425 95.3509 329.652 0 212.5 0ZM212.5 35.4853C310.473 35.4853 389.518 114.527 389.518 212.5C389.518 310.476 310.473 389.518 212.5 389.518C114.527 389.518 35.482 310.476 35.482 212.5C35.482 114.527 114.527 35.4853 212.5 35.4853Z" fill="white"/>
<path fill-rule="evenodd" clip-rule="evenodd" d="M160.791 201.75C207.325 163.736 252.843 124.399 300.39 87.4951C275.452 125.818 249.802 163.633 224.864 201.953C203.474 202.052 182.081 202.052 160.791 201.75ZM200.128 222.937C221.621 222.937 243.01 222.937 264.4 223.243C217.563 261.057 172.249 300.696 124.602 337.497C149.54 299.174 175.19 261.26 200.128 222.937Z" fill="white"/>
</svg>
