<svg width="470" height="470" viewBox="0 0 470 470" fill="none" xmlns="http://www.w3.org/2000/svg">
<path d="M117.86 225.677C116.024 248.793 136.332 265.82 150.192 265.82C164.07 265.173 218.123 219.622 218.123 219.622C243.545 187.47 243.656 173.174 243.656 161.937C241.535 112.327 151.152 187.888 117.86 225.677ZM341.445 206.475C353.714 180.509 337.208 151.67 301.304 177.001C272.773 195.134 235.837 232.439 218.16 247.042C209.961 263.603 230.745 309.052 263.682 285.055C302.613 256.771 331.042 230.174 341.445 206.475ZM374.859 49.3996L382.765 0H470V90.1757L438.03 90.5576L399.535 220.94C401.931 266.956 378.596 267.705 375.615 288.82C368.124 341.887 308.778 385.309 286.089 385.309C270.956 384.87 259.893 367.526 256.178 352.413C298.845 305.22 356.221 268.133 356.221 268.133C359.804 243.314 351.93 235.412 378.411 214.263L403.681 81.3981C382.1 67.1467 372.03 67.3679 374.859 49.3996ZM204.588 269.437C226.713 314.017 258.681 315.179 308.245 258.422C309.422 263.669 310.712 269.167 308.346 282.367C207.52 372.548 112.556 460.315 83.6499 470H0V447.565C13.6043 428.699 125.255 336.609 204.588 269.437ZM353.6 355.753C349.06 394.341 313.879 428.108 266.868 470H117.878L243.482 364.2C265.164 413.545 303.677 406.397 353.601 355.753H353.6ZM177.407 268.166L0 419.378V321.274L104.401 236.285C109.986 267.919 144.199 295.775 177.407 268.168V268.166Z" fill="white"/>
</svg>
