<svg width="448" height="448" viewBox="0 0 448 448" fill="none" xmlns="http://www.w3.org/2000/svg">
<path fill-rule="evenodd" clip-rule="evenodd" d="M43.75 0H404.25C428.412 0 448 19.5875 448 43.75V404.25C448 428.412 428.412 448 404.25 448H43.75C19.5875 448 0 428.412 0 404.25V43.75C0 19.5875 19.5875 0 43.75 0ZM277.322 400.299V356.496C285.264 363.158 293.892 368.154 303.203 371.485C312.516 374.816 321.919 376.481 331.413 376.481C336.983 376.481 341.843 375.98 345.998 374.975C350.151 373.971 353.621 372.58 356.405 370.801C359.189 369.021 361.267 366.922 362.636 364.504C364.005 362.085 364.69 359.462 364.69 356.633C364.69 352.8 363.595 349.378 361.404 346.367C359.212 343.355 356.222 340.572 352.433 338.017C348.646 335.462 344.149 332.998 338.945 330.625C333.742 328.252 328.127 325.834 322.102 323.37C306.764 316.982 295.329 309.18 287.798 299.963C280.266 290.746 276.5 279.612 276.5 266.563C276.5 256.342 278.555 247.558 282.663 240.213C286.771 232.866 292.362 226.821 299.437 222.075C306.513 217.33 314.707 213.839 324.019 211.604C333.33 209.368 343.19 208.25 353.598 208.25C363.822 208.25 372.884 208.866 380.781 210.098C388.678 211.33 395.959 213.224 402.622 215.779V256.708C399.336 254.426 395.753 252.418 391.873 250.684C387.993 248.951 383.999 247.513 379.891 246.372C375.782 245.232 371.697 244.388 367.634 243.84C363.571 243.293 359.714 243.019 356.063 243.019C351.041 243.019 346.477 243.498 342.368 244.456C338.26 245.414 334.792 246.761 331.961 248.494C329.131 250.228 326.94 252.304 325.388 254.722C323.836 257.141 323.06 259.856 323.06 262.867C323.06 266.152 323.928 269.095 325.662 271.696C327.396 274.297 329.861 276.761 333.056 279.088C336.252 281.415 340.132 283.696 344.697 285.932C349.262 288.168 354.42 290.472 360.171 292.845C368.022 296.13 375.075 299.62 381.328 303.316C387.582 307.012 392.946 311.188 397.419 315.842C401.893 320.496 405.316 325.812 407.69 331.789C410.064 337.766 411.25 344.724 411.25 352.664C411.25 363.614 409.173 372.808 405.019 380.245C400.866 387.683 395.228 393.706 388.107 398.314C380.986 402.923 372.701 406.231 363.252 408.238C353.803 410.246 343.829 411.25 333.33 411.25C322.557 411.25 312.31 410.337 302.587 408.512C292.864 406.687 284.442 403.95 277.322 400.299ZM259.875 248.572H203.682V408.625H159.168V248.572H103.25V212.625H259.875V248.572Z" fill="white"/>
</svg>
